<?xml version="1.0" encoding="UTF-8"?>
<!DOCTYPE svg PUBLIC "-//W3C//DTD SVG 1.1//EN" "http://www.w3.org/Graphics/SVG/1.1/DTD/svg11.dtd">
<!-- Creator: CorelDRAW 2021 (64-Bit) -->
<svg xmlns="http://www.w3.org/2000/svg" xml:space="preserve" width="280.219mm" height="76.53mm" version="1.1" style="shape-rendering:geometricPrecision; text-rendering:geometricPrecision; image-rendering:optimizeQuality; fill-rule:evenodd; clip-rule:evenodd"
viewBox="0 0 28021.9 7653"
 xmlns:xlink="http://www.w3.org/1999/xlink"
 xmlns:xodm="http://www.corel.com/coreldraw/odm/2003">
 <defs>
  <style type="text/css">
   <![CDATA[
    .fil1 {fill:#2E3192}
    .fil4 {fill:#4EC1C6}
    .fil2 {fill:#575BA6}
    .fil5 {fill:#949ABC}
    .fil0 {fill:#D3DAE0}
    .fil3 {fill:white}
   ]]>
  </style>
 </defs>
 <g id="Capa_x0020_1">
  <metadata id="CorelCorpID_0Corel-Layer"/>
  <g id="_1911647745216">
   <polygon class="fil0" points="28020.51,7614.19 28020.51,39.66 37.87,39.66 37.87,7614.19 "/>
   <path class="fil1" d="M6238.78 3414.84c47.41,-30.07 1.51,-13.95 86.29,-31.45l20298.62 -7.79 0 -667.2 -19796.21 0.01c-45.8,0.01 -542.34,17.31 -561.43,-27.29 -4.8,-11.23 -18.88,-6.64 -27.27,-11.96l-2.63 -1084.89 -811.72 0.04 -20.46 1104.39 -1417.39 4.88 0 697.17 1408.28 0.69 13.15 3091.67c399.35,0 2392.83,44.12 2612.22,-27.45l-1.11 -657.98 -1780.34 -14.81 0 -851.47 1712.14 0 16.53 -707.53 -1709.04 -0.02 -19.63 -809.01z"/>
   <path class="fil2" d="M17938.87 3677.29c-1827.13,493 -1228.24,3370.89 769.93,2907.15 725,-168.27 1283.06,-918.5 1069.11,-1836.07 -168.53,-722.77 -908.3,-1322.21 -1839.04,-1071.08z"/>
   <path class="fil2" d="M12101.07 3682.25c-1822.89,503.19 -1191.93,3381.36 796.1,2898.97 721.54,-175.08 1275.94,-894.49 1051.01,-1851.75 -164.62,-700.53 -918.9,-1303.45 -1847.11,-1047.22z"/>
   <path class="fil2" d="M14296.28 5511.85c-96.18,103.6 -298.86,408.3 -354.37,532.49 352.06,476.08 2012.12,980.88 2668.98,88.61 364.75,-495.47 58.46,-1049.64 -330.73,-1261.33 -434.44,-236.3 -1365.1,-84.52 -1526.14,-397.13 145.67,-267.77 532.55,-260.35 845.27,-177.44 360.57,95.58 487.27,252.45 716.04,400.65 103.28,-129.73 308.68,-392.26 367.94,-554.33 -462.31,-249.94 -1073.68,-711.12 -1893.4,-457.94 -896.39,276.85 -814.19,1138.35 -378.36,1407.09 608.86,375.46 2055.68,78.35 1633.17,708.56 -157.63,235.12 -656.58,237.5 -958.76,149.63 -373.01,-108.46 -548.7,-274.57 -789.64,-438.86z"/>
   <path class="fil2" d="M20053.5 6554.54l637.78 0 1.86 -1599.28c41.54,27.62 1282.99,1382.51 1401.11,1596.85l422.16 -5.03 -0.15 -2855.08 -647.89 -2.88 0.23 1584.73c-91.06,-52.51 -25.69,-3.85 -101.01,-78.42l-1005.97 -1153.44c-316.39,-371.22 -191.54,-362.26 -708.12,-362.26l0 2874.81z"/>
   <path class="fil2" d="M26689.87 5730.37c-96.48,-103.24 -378.29,-321.85 -506.68,-382.7 -578.69,1140.66 -1634.14,627.91 -1689.25,-131.54 -34.73,-478.73 226.79,-851.36 617.47,-940.24 239.88,-54.59 448.82,-14.81 630.83,82.2 295.91,157.72 223.3,286.01 394.45,440.2 152.8,-94.64 364.53,-242.13 502.95,-363.04 -166.32,-556.63 -1019.12,-954.83 -1733.08,-758.68 -626.73,172.17 -1104.84,731.97 -1064.88,1544.74 82.25,1673.25 2331.53,1864.35 2848.19,509.06z"/>
   <path class="fil2" d="M11014.74 5730.37c-72.57,-92.8 -405.61,-322.59 -498.1,-373.04 -245.06,307.49 -320.05,658.81 -901.23,644.01 -1014.04,-25.82 -1056.42,-1528.26 -165.37,-1729.98 589.28,-133.41 795.33,229.85 988.1,520.93 140.77,-49.68 422.03,-275.47 539.69,-359.49 -667.1,-1338.36 -2902.1,-969.4 -2812.34,787.85 36.95,723.18 541.47,1274.89 1205.11,1384.02 810.67,133.31 1461.14,-328.83 1644.14,-874.3z"/>
   <polygon class="fil3" points="-1.38,7653.44 28020.51,7653.44 28020.51,7614.19 37.87,7614.19 37.87,39.66 28020.51,39.66 28020.51,0.41 -1.38,0.41 "/>
   <path class="fil4" d="M3570.04 6837.01l0 -372.83c-2425.18,-175.93 -2472.31,-3722.2 0,-3912.76l0 -392.46c-1226.02,36.86 -2216.19,1072.13 -2227.1,2316.47 -11.05,1258.14 993.1,2326.67 2227.1,2361.58z"/>
   <path class="fil0" d="M17502.49 5141.67c0,820.61 963.06,1137.43 1434.85,611 480.19,-535.8 174.94,-1503.83 -610.68,-1503.83 -497.03,0 -824.17,385.24 -824.17,892.83z"/>
   <path class="fil0" d="M12368.55 4265.98c-1112.23,195.98 -816.87,1960.93 325.44,1715.51 418.56,-89.94 704.17,-496.19 629.48,-1016.79 -63.6,-443.25 -453.95,-786.99 -954.92,-698.72z"/>
   <polygon class="fil2" points="22957.73,6554.54 23624.92,6554.54 23624.92,3650.32 22957.73,3650.32 "/>
   <path class="fil4" d="M3557.33 6188.61l14.85 -418.95c-1072.64,-118.66 -1506.23,-1364.36 -814.34,-2147.15 229.41,-259.54 427.75,-248.67 800.85,-403.91l7.55 -380.39c-1957.58,135.97 -2219.28,3040.45 -8.91,3350.4z"/>
   <path class="fil5" d="M6238.78 3414.84l20397.34 -0.13c64.01,-185.54 64.01,-559.88 0,-734.78l-20397.34 -10.77c8.39,5.32 22.47,0.73 27.27,11.96 19.09,44.6 515.63,27.3 561.43,27.29l19796.21 -0.01 0 667.2 -20298.62 7.79c-84.78,17.5 -38.88,1.38 -86.29,31.45z"/>
   <path class="fil4" d="M3570.04 5437.45l-1.56 -374.28c-26.7,-21.59 -786.43,-421.2 -291.31,-959.73 300.71,-327.09 292.87,40.16 292.87,-570.86 -1134.7,207.52 -1097.46,1747.41 0,1904.87z"/>
   <path class="fil4" d="M3544.92 4119.7c-500.12,264.01 -85.71,922.64 356.95,690.18 436.74,-229.35 114.55,-939.08 -356.95,-690.18z"/>
   <path class="fil2" d="M11995.66 5610.19c100.36,-56.08 105.06,-76.12 181.64,-193.79 -246.98,-424.51 -114.86,-340.39 27,-748.18 -94.14,-44.9 -103.59,-71.05 -196.3,-117.7 -276.89,335.78 -300.35,756.89 -12.34,1059.67z"/>
   <path class="fil2" d="M24868.67 5671.68c86.01,-72.17 80.41,-95.37 158.17,-176.79 -45.07,-121.37 -139.57,-157.01 -128.62,-343.68 10.43,-177.78 99.42,-249.6 145.78,-401.99 -84.81,-70.81 -94.39,-96.81 -192.68,-144.71 -280.47,409.45 -305.59,729.43 17.35,1067.17z"/>
   <path class="fil2" d="M17906.88 5676.7c85.45,-93.53 96.61,-74.61 167.36,-191.43 -294.54,-288.27 -61.07,-454.95 8.47,-736.05l-180.46 -143.6c-322.04,370.83 -281.47,755.94 4.63,1071.08z"/>
   <path class="fil2" d="M9143.02 5621.25l173.23 -211.6c-289.06,-209.08 -108.29,-477.07 6.05,-692.57 -53.66,-52.51 -121.41,-112.67 -211.27,-154.33 -168.4,315.96 -358.31,861.21 31.99,1058.5z"/>
  </g>
 </g>
</svg>
